# xmcd
#
# Track frame offsets:
# 150
# 16101
# 30482
# 51445
# 56042
# 78251
# 91760
# 106238
# 110984
# 129825
# 149532
# 162898
# 184423
# 188917
# 202028
# 213543
# 227680
#
# Disc length: 3382 seconds
#
#
# Revision: 0
# Processed by: cddbd v1.5.2PL0 Copyright (c) Steve Scherf et al.
# Submitted via: FreeRIP 2.941 
#
DISCID=ed0d3411
DTITLE=Φωτεινή Δάρρα - Δελτίο ανέμων
DYEAR=2004
DGENRE=
TTITLE0=Εμπρός ν' ανοίξουμε πανιά
TTITLE1=Στα ουράνια μάκρη
TTITLE2=Σ' αγαπώ
TTITLE3=Ανεμογεννήτρια
TTITLE4=Στη σκοτεινή πλευρά του δρόμου
TTITLE5=Πριν φυγ' η νύχτα
TTITLE6=Μου μοιάζεις τόσο
TTITLE7=’νιμα-Ψυχή
TTITLE8=Δωσ' μου καιρό
TTITLE9=Στο ποτέ στο πουθενά
TTITLE10=Περσεφόνη
TTITLE11=Όταν όλα περάσουν
TTITLE12=Ανεμώνη
TTITLE13=Είμαι και δεν είμαι
TTITLE14=Πέρασε ξυστά
TTITLE15=Τα μάτια σου είναι θάλασσες
TTITLE16=Μια μάνα γύρευα να βρω
EXTD=
EXTT0=
EXTT1=
EXTT2=
EXTT3=
EXTT4=
EXTT5=
EXTT6=
EXTT7=
EXTT8=
EXTT9=
EXTT10=
EXTT11=
EXTT12=
EXTT13=
EXTT14=
EXTT15=
EXTT16=
PLAYORDER=
